<?xml version="1.0" encoding="UTF-8" standalone="no"?>
<svg xmlns="http://www.w3.org/2000/svg" xmlns:xlink="http://www.w3.org/1999/xlink" focusable="true" height="319.0" id="workspace" preserveAspectRatio="xMinYMin" viewBox="-587.0 -156.0 906.0 319.0" width="906.0">
<path d="M-208,-15 C-262,-12 -262,-76 -226,-86" stroke="#3f96ff" stroke-opacity="1" stroke-width="2px" style="fill:none " visibility="hidden"/>
<path d="M-208,-15 L-212.00076915681896,-10.528552118849404M-208,-15 L-212.4714478811506,-19.000769156818954" stroke="#9b74e6" stroke-opacity="1" stroke-width="2px" visibility="visible"/>
<path d="M-216,-40 C-226,-39 -244,-43 -208,-61" stroke="#3f96ff" stroke-opacity="1" stroke-width="2px" style="fill:none " visibility="hidden"/>
<path d="M-216,-40 L-219.79942674154358,-35.356256204780074M-216,-40 L-220.64374379521993,-43.79942674154358" stroke="#9b74e6" stroke-opacity="1" stroke-width="2px" visibility="visible"/>
<path d="M150,10 C159,10 169,38 178,38" fill="#495879" fill-opacity="1" stroke="#495879" stroke-opacity="1" stroke-width="1px" style="fill:none " visibility="visible"/>
<rect fill="#CC0033" fill-opacity="0.4" height="23" rx="0" ry="0" stroke="#FF9933" stroke-opacity="0.4" stroke-width="1px" visibility="hidden" width="79" x="72" y="-11"/>
<path d="M183,-58 C172,-35.333333333333336 161,-12.666666666666664 150,10" fill-opacity="0.4" stroke="#CC0033" stroke-opacity="0.4" stroke-width="1px" style="fill:none " visibility="hidden"/>
<path d="M-69,-116 C-46,-77.33333333333334 -23.000000000000004,-38.66666666666667 0,0" fill-opacity="0.4" stroke="#CC0033" stroke-opacity="0.4" stroke-width="1px" style="fill:none " visibility="hidden"/>
<path d="M-102,35 C-111,35 -122,20 -131,20" fill="#495879" fill-opacity="1" stroke="#495879" stroke-opacity="1" stroke-width="1px" style="fill:none " visibility="visible"/>
<path d="M-102,35 C-111,35 -122,78 -131,78" fill="#495879" fill-opacity="1" stroke="#495879" stroke-opacity="1" stroke-width="1px" style="fill:none " visibility="visible"/>
<path d="M0,0 C-24,0 -48,-77 -72,-77 -48,-74 -24,5 0,7 Z" fill="#495879" fill-opacity="1" stroke="#495879" stroke-opacity="1" stroke-width="1px" style="fill:#495879 " visibility="visible"/>
<path d="M-102,35 C-111,35 -122,-8 -131,-8" fill="#495879" fill-opacity="1" stroke="#495879" stroke-opacity="1" stroke-width="1px" style="fill:none " visibility="visible"/>
<path d="M-102,35 C-111,35 -122,-37 -131,-37" fill="#495879" fill-opacity="1" stroke="#495879" stroke-opacity="1" stroke-width="1px" style="fill:none " visibility="visible"/>
<path d="M-102,35 C-111,35 -122,107 -131,107" fill="#495879" fill-opacity="1" stroke="#495879" stroke-opacity="1" stroke-width="1px" style="fill:none " visibility="visible"/>
<path d="M-102,35 C-111,35 -122,49 -131,49" fill="#495879" fill-opacity="1" stroke="#495879" stroke-opacity="1" stroke-width="1px" style="fill:none " visibility="visible"/>
<path d="M-433,79 C-442,79 -453,78 -462,78" fill="#495879" fill-opacity="1" stroke="#495879" stroke-opacity="1" stroke-width="1px" style="fill:none " visibility="visible"/>
<path d="M-326,78 C-335,78 -346,78 -355,78" fill="#495879" fill-opacity="1" stroke="#495879" stroke-opacity="1" stroke-width="1px" style="fill:none " visibility="visible"/>
<path d="M150,10 C159,10 169,10 178,10" fill="#495879" fill-opacity="1" stroke="#495879" stroke-opacity="1" stroke-width="1px" style="fill:none " visibility="visible"/>
<path d="M-112,-77 C-122,-77 -132,-66 -142,-66" fill="#495879" fill-opacity="1" stroke="#495879" stroke-opacity="1" stroke-width="1px" style="fill:none " visibility="visible"/>
<path d="M-112,-77 C-122,-77 -132,-91 -142,-91" fill="#495879" fill-opacity="1" stroke="#495879" stroke-opacity="1" stroke-width="1px" style="fill:none " visibility="visible"/>
<path d="M-194,79 C-203,79 -214,78 -223,78" fill="#495879" fill-opacity="1" stroke="#495879" stroke-opacity="1" stroke-width="1px" style="fill:none " visibility="visible"/>
<path d="M0,0 C24,0 49,10 73,10 49,13 24,5 0,7 Z" fill="#495879" fill-opacity="1" stroke="#495879" stroke-opacity="1" stroke-width="1px" style="fill:#495879 " visibility="visible"/>
<path d="M150,10 C159,10 169,-19 178,-19" fill="#495879" fill-opacity="1" stroke="#495879" stroke-opacity="1" stroke-width="1px" style="fill:none " visibility="visible"/>
<path d="M0,0 C-24,0 -48,34 -72,34 -48,37 -24,5 0,7 Z" fill="#495879" fill-opacity="1" stroke="#495879" stroke-opacity="1" stroke-width="1px" style="fill:#495879 " visibility="visible"/>
<g focusable="true" height="100" preserveAspectRatio="none" transform="translate(-43,-19) scale(1,1)" visibility="visible" width="100">
<rect fill="rgb(252,235,192)" fill-opacity="0" height="44" rx="6.6" ry="6.6" stroke="rgb(241,163,39)" stroke-opacity="0" stroke-width="1px" style="cursor: default;" width="90" x="-2" y="-3"/>
<rect fill="rgb(80,157,192)" height="38" rx="5.7" ry="5.7" stroke="rgb(57,113,177)" stroke-width="2px" style="cursor: default;" width="86" x="0" y="0"/>
<text fill="#ffffff" font-family="verdana" font-size="13.4375" font-style="normal" font-weight="bold" style="cursor: default;" visibility="visible" x="11" y="11">
<tspan dy="1em" x="11">Main.py</tspan>
</text>
<g focusable="true" height="16" preserveAspectRatio="none" transform="translate(0,11) scale(0,0.16)" width="0"/>
</g>
<g focusable="true" height="100" preserveAspectRatio="none" transform="translate(73,-9) scale(1,1)" visibility="visible" width="100">
<rect fill="rgb(244,184,45)" fill-opacity="1" height="25" rx="3.75" ry="3.75" stroke="rgb(241,163,39)" stroke-opacity="1" stroke-width="1px" style="cursor: move;" width="79" x="-2" y="-3"/>
<line stroke="#495879" stroke-opacity="1" stroke-width="1px" style="cursor: move;" visibility="visible" x1="0" x2="75" y1="19" y2="19"/>
<text fill="rgb(0, 0, 255)" font-family="verdana" font-size="10.75" font-style="normal" font-weight="bold" style="cursor: move;" visibility="visible" x="3" y="3">
<tspan dy="1em" x="3">Data model</tspan>
</text>
<g focusable="true" height="13" preserveAspectRatio="none" transform="translate(0,3) scale(0,0.13)" width="0"/>
<ellipse cx="78" cy="19" fill="rgb(224,229,239)" height="6" rx="3" ry="3" stroke="rgb(2,59,185)" stroke-width="1px" style="cursor: default;" visibility="visible" width="6"/>
</g>
<g focusable="true" height="100" preserveAspectRatio="none" transform="translate(-101,15) scale(1,1)" visibility="visible" width="100">
<rect fill="rgb(252,235,192)" fill-opacity="0" height="25" rx="3.75" ry="3.75" stroke="rgb(241,163,39)" stroke-opacity="0" stroke-width="1px" style="cursor: move;" width="33" x="-2" y="-3"/>
<line stroke="#495879" stroke-opacity="1" stroke-width="1px" style="cursor: move;" visibility="visible" x1="0" x2="29" y1="19" y2="19"/>
<text fill="rgb(0, 0, 255)" font-family="verdana" font-size="10.75" font-style="normal" font-weight="bold" style="cursor: move;" visibility="visible" x="3" y="3">
<tspan dy="1em" x="3">GUI</tspan>
</text>
<g focusable="true" height="13" preserveAspectRatio="none" transform="translate(0,3) scale(0,0.13)" width="0"/>
<ellipse cx="-3" cy="19" fill="rgb(224,229,239)" height="6" rx="3" ry="3" stroke="rgb(2,59,185)" stroke-width="1px" style="cursor: default;" visibility="visible" width="6"/>
</g>
<g focusable="true" height="100" preserveAspectRatio="none" transform="translate(178,-38) scale(1,1)" visibility="visible" width="100">
<rect fill="rgb(252,235,192)" fill-opacity="0" height="25" rx="3.75" ry="3.75" stroke="rgb(241,163,39)" stroke-opacity="0" stroke-width="1px" style="cursor: move;" width="59" x="-2" y="-3"/>
<line stroke="#495879" stroke-opacity="1" stroke-width="1px" style="cursor: move;" x1="0" x2="55" y1="19" y2="19"/>
<text fill="rgb(82,92,97)" font-family="verdana" font-size="10.75" font-style="normal" font-weight="normal" style="cursor: move;" visibility="visible" x="3" y="3">
<tspan dy="1em" x="3">model.py</tspan>
</text>
<g focusable="true" height="13" preserveAspectRatio="none" transform="translate(0,3) scale(0,0.13)" width="0"/>
<ellipse cx="3" cy="3" fill="rgb(224,229,239)" height="6" rx="3" ry="3" stroke="rgb(2,59,185)" stroke-width="1px" style="cursor: default;" visibility="hidden" width="6"/>
</g>
<g focusable="true" height="100" preserveAspectRatio="none" transform="translate(-211,-56) scale(1,1)" visibility="visible" width="100">
<rect fill="rgb(252,235,192)" fill-opacity="0" height="25" rx="3.75" ry="3.75" stroke="rgb(241,163,39)" stroke-opacity="0" stroke-width="1px" style="cursor: move;" width="84" x="-2" y="-3"/>
<line stroke="#495879" stroke-opacity="1" stroke-width="1px" style="cursor: move;" x1="0" x2="80" y1="19" y2="19"/>
<text fill="rgb(82,92,97)" font-family="verdana" font-size="10.75" font-style="normal" font-weight="normal" style="cursor: move;" visibility="visible" x="3" y="3">
<tspan dy="1em" x="3">import_log.py</tspan>
</text>
<g focusable="true" height="13" preserveAspectRatio="none" transform="translate(0,3) scale(0,0.13)" width="0"/>
<ellipse cx="-3" cy="15" fill="rgb(224,229,239)" height="6" rx="3" ry="3" stroke="rgb(2,59,185)" stroke-width="1px" style="cursor: default;" visibility="hidden" width="6"/>
</g>
<g focusable="true" height="100" preserveAspectRatio="none" transform="translate(178,19) scale(1,1)" visibility="visible" width="100">
<rect fill="rgb(252,235,192)" fill-opacity="0" height="25" rx="3.75" ry="3.75" stroke="rgb(241,163,39)" stroke-opacity="0" stroke-width="1px" style="cursor: move;" width="91" x="-2" y="-3"/>
<line stroke="#495879" stroke-opacity="1" stroke-width="1px" style="cursor: move;" x1="0" x2="87" y1="19" y2="19"/>
<text fill="rgb(82,92,97)" font-family="verdana" font-size="10.75" font-style="normal" font-weight="normal" style="cursor: move;" visibility="visible" x="3" y="3">
<tspan dy="1em" x="3">import_ulog.py</tspan>
</text>
<g focusable="true" height="13" preserveAspectRatio="none" transform="translate(0,3) scale(0,0.13)" width="0"/>
<ellipse cx="73" cy="16" fill="rgb(224,229,239)" height="6" rx="3" ry="3" stroke="rgb(2,59,185)" stroke-width="1px" style="cursor: default;" visibility="hidden" width="6"/>
</g>
<g focusable="true" height="100" preserveAspectRatio="none" transform="translate(-193,59) scale(1,1)" visibility="visible" width="100">
<rect fill="rgb(252,235,192)" fill-opacity="0" height="25" rx="3.75" ry="3.75" stroke="rgb(241,163,39)" stroke-opacity="0" stroke-width="1px" style="cursor: move;" width="66" x="-2" y="-3"/>
<line stroke="#495879" stroke-opacity="1" stroke-width="1px" style="cursor: move;" x1="0" x2="62" y1="19" y2="19"/>
<text fill="rgb(82,92,97)" font-family="verdana" font-size="10.75" font-style="normal" font-weight="normal" style="cursor: move;" visibility="visible" x="3" y="3">
<tspan dy="1em" x="3">Tab_3D.py</tspan>
</text>
<g focusable="true" height="13" preserveAspectRatio="none" transform="translate(0,3) scale(0,0.13)" width="0"/>
<ellipse cx="-3" cy="19" fill="rgb(224,229,239)" height="6" rx="3" ry="3" stroke="rgb(2,59,185)" stroke-width="1px" style="cursor: default;" visibility="visible" width="6"/>
</g>
<g focusable="true" height="100" preserveAspectRatio="none" transform="translate(-211,30) scale(1,1)" visibility="visible" width="100">
<rect fill="rgb(252,235,192)" fill-opacity="0" height="25" rx="3.75" ry="3.75" stroke="rgb(241,163,39)" stroke-opacity="0" stroke-width="1px" style="cursor: move;" width="84" x="-2" y="-3"/>
<line stroke="#495879" stroke-opacity="1" stroke-width="1px" style="cursor: move;" x1="0" x2="80" y1="19" y2="19"/>
<text fill="rgb(82,92,97)" font-family="verdana" font-size="10.75" font-style="normal" font-weight="normal" style="cursor: move;" visibility="visible" x="3" y="3">
<tspan dy="1em" x="3">Tab_Graph.py</tspan>
</text>
<g focusable="true" height="13" preserveAspectRatio="none" transform="translate(0,3) scale(0,0.13)" width="0"/>
<ellipse cx="3" cy="3" fill="rgb(224,229,239)" height="6" rx="3" ry="3" stroke="rgb(2,59,185)" stroke-width="1px" style="cursor: default;" visibility="hidden" width="6"/>
</g>
<g focusable="true" height="100" preserveAspectRatio="none" transform="translate(-194,88) scale(1,1)" visibility="visible" width="100">
<rect fill="rgb(252,235,192)" fill-opacity="0" height="25" rx="3.75" ry="3.75" stroke="rgb(241,163,39)" stroke-opacity="0" stroke-width="1px" style="cursor: move;" width="67" x="-2" y="-3"/>
<line stroke="#495879" stroke-opacity="1" stroke-width="1px" style="cursor: move;" x1="0" x2="63" y1="19" y2="19"/>
<text fill="rgb(82,92,97)" font-family="verdana" font-size="10.75" font-style="normal" font-weight="normal" style="cursor: move;" visibility="visible" x="3" y="3">
<tspan dy="1em" x="3">Tab_log.py</tspan>
</text>
<g focusable="true" height="13" preserveAspectRatio="none" transform="translate(0,3) scale(0,0.13)" width="0"/>
<ellipse cx="3" cy="3" fill="rgb(224,229,239)" height="6" rx="3" ry="3" stroke="rgb(2,59,185)" stroke-width="1px" style="cursor: default;" visibility="hidden" width="6"/>
</g>
<g focusable="true" height="100" preserveAspectRatio="none" transform="translate(-205,1) scale(1,1)" visibility="visible" width="100">
<rect fill="rgb(252,235,192)" fill-opacity="0" height="25" rx="3.75" ry="3.75" stroke="rgb(241,163,39)" stroke-opacity="0" stroke-width="1px" style="cursor: move;" width="78" x="-2" y="-3"/>
<line stroke="#495879" stroke-opacity="1" stroke-width="1px" style="cursor: move;" x1="0" x2="74" y1="19" y2="19"/>
<text fill="rgb(82,92,97)" font-family="verdana" font-size="10.75" font-style="normal" font-weight="normal" style="cursor: move;" visibility="visible" x="3" y="3">
<tspan dy="1em" x="3">Tab_table.py</tspan>
</text>
<g focusable="true" height="13" preserveAspectRatio="none" transform="translate(0,3) scale(0,0.13)" width="0"/>
<ellipse cx="-3" cy="15" fill="rgb(224,229,239)" height="6" rx="3" ry="3" stroke="rgb(2,59,185)" stroke-width="1px" style="cursor: default;" visibility="hidden" width="6"/>
</g>
<g focusable="true" height="100" preserveAspectRatio="none" transform="translate(-226,-106) scale(1,1)" visibility="visible" width="100">
<rect fill="rgb(252,235,192)" fill-opacity="0" height="21" rx="3.15" ry="3.15" stroke="rgb(241,163,39)" stroke-opacity="0" stroke-width="1px" style="cursor: move;" width="88" x="-2" y="-3"/>
<line stroke="#495879" stroke-opacity="1" stroke-width="1px" style="cursor: move;" x1="0" x2="84" y1="15" y2="15"/>
<text fill="rgb(106, 168, 79)" font-family="verdana" font-size="8.0625" font-style="normal" font-weight="normal" style="cursor: move;" visibility="visible" x="3" y="3">
<tspan dy="1em" x="3">paraloger_GUI1.ui</tspan>
</text>
<g focusable="true" height="9" preserveAspectRatio="none" transform="translate(0,3) scale(0,0.09)" width="0"/>
<ellipse cx="-3" cy="15" fill="rgb(224,229,239)" height="6" rx="3" ry="3" stroke="rgb(2,59,185)" stroke-width="1px" style="cursor: default;" visibility="hidden" width="6"/>
</g>
<g focusable="true" height="100" preserveAspectRatio="none" transform="translate(-111,-96) scale(1,1)" visibility="visible" width="100">
<rect fill="rgb(252,235,192)" fill-opacity="0" height="25" rx="3.75" ry="3.75" stroke="rgb(241,163,39)" stroke-opacity="0" stroke-width="1px" style="cursor: move;" width="43" x="-2" y="-3"/>
<line stroke="#495879" stroke-opacity="1" stroke-width="1px" style="cursor: move;" visibility="visible" x1="0" x2="39" y1="19" y2="19"/>
<text fill="rgb(82,92,97)" font-family="verdana" font-size="10.75" font-style="normal" font-weight="normal" style="cursor: move;" visibility="visible" x="3" y="3">
<tspan dy="1em" x="3">UI file</tspan>
</text>
<g focusable="true" height="13" preserveAspectRatio="none" transform="translate(0,3) scale(0,0.13)" width="0"/>
<ellipse cx="-3" cy="19" fill="rgb(224,229,239)" height="6" rx="3" ry="3" stroke="rgb(2,59,185)" stroke-width="1px" style="cursor: default;" visibility="visible" width="6"/>
</g>
<g focusable="true" height="100" preserveAspectRatio="none" transform="translate(-226,-81) scale(1,1)" visibility="visible" width="100">
<rect fill="rgb(252,235,192)" fill-opacity="0" height="21" rx="3.15" ry="3.15" stroke="rgb(241,163,39)" stroke-opacity="0" stroke-width="1px" style="cursor: move;" width="88" x="-2" y="-3"/>
<line stroke="#495879" stroke-opacity="1" stroke-width="1px" style="cursor: move;" x1="0" x2="84" y1="15" y2="15"/>
<text fill="rgb(106, 168, 79)" font-family="verdana" font-size="8.0625" font-style="normal" font-weight="normal" style="cursor: move;" visibility="visible" x="3" y="3">
<tspan dy="1em" x="3">import_log_GUI.ui</tspan>
</text>
<g focusable="true" height="9" preserveAspectRatio="none" transform="translate(0,3) scale(0,0.09)" width="0"/>
<ellipse cx="-3" cy="15" fill="rgb(224,229,239)" height="6" rx="3" ry="3" stroke="rgb(2,59,185)" stroke-width="1px" style="cursor: default;" visibility="hidden" width="6"/>
</g>
<g focusable="true" height="100" preserveAspectRatio="none" transform="translate(-537,63) scale(1,1)" visibility="visible" width="100">
<rect fill="rgb(252,235,192)" fill-opacity="0" height="21" rx="3.15" ry="3.15" stroke="rgb(241,163,39)" stroke-opacity="0" stroke-width="1px" style="cursor: move;" width="79" x="-2" y="-3"/>
<line stroke="#495879" stroke-opacity="1" stroke-width="1px" style="cursor: move;" x1="0" x2="75" y1="15" y2="15"/>
<text fill="rgb(82,92,97)" font-family="verdana" font-size="8.0625" font-style="normal" font-weight="normal" style="cursor: move;" visibility="visible" x="3" y="3">
<tspan dy="1em" x="3">simple_body.obj</tspan>
</text>
<g focusable="true" height="9" preserveAspectRatio="none" transform="translate(0,3) scale(0,0.09)" width="0"/>
<ellipse cx="-3" cy="15" fill="rgb(224,229,239)" height="6" rx="3" ry="3" stroke="rgb(2,59,185)" stroke-width="1px" style="cursor: default;" visibility="hidden" width="6"/>
</g>
<g focusable="true" height="100" preserveAspectRatio="none" transform="translate(-325,62) scale(1,1)" visibility="visible" width="100">
<rect fill="rgb(252,235,192)" fill-opacity="0" height="22" rx="3.3" ry="3.3" stroke="rgb(241,163,39)" stroke-opacity="0" stroke-width="1px" style="cursor: move;" width="106" x="-2" y="-3"/>
<line stroke="#495879" stroke-opacity="1" stroke-width="1px" style="cursor: move;" x1="0" x2="102" y1="16" y2="16"/>
<text fill="rgb(82,92,97)" font-family="verdana" font-size="8.0625" font-style="normal" font-weight="normal" style="cursor: move;" visibility="visible" x="3" y="3">
<tspan dy="1em" x="3">geometry_modeling.py</tspan>
</text>
<g focusable="true" height="10" preserveAspectRatio="none" transform="translate(0,3) scale(0,0.1)" width="0"/>
<ellipse cx="-3" cy="16" fill="rgb(224,229,239)" height="6" rx="3" ry="3" stroke="rgb(2,59,185)" stroke-width="1px" style="cursor: default;" visibility="visible" width="6"/>
</g>
<g focusable="true" height="100" preserveAspectRatio="none" transform="translate(178,-9) scale(1,1)" visibility="visible" width="100">
<rect fill="rgb(252,235,192)" fill-opacity="0" height="25" rx="3.75" ry="3.75" stroke="rgb(241,163,39)" stroke-opacity="0" stroke-width="1px" style="cursor: move;" width="83" x="-2" y="-3"/>
<line stroke="#495879" stroke-opacity="1" stroke-width="1px" style="cursor: move;" x1="0" x2="79" y1="19" y2="19"/>
<text fill="rgb(82,92,97)" font-family="verdana" font-size="10.75" font-style="normal" font-weight="normal" style="cursor: move;" visibility="visible" x="3" y="3">
<tspan dy="1em" x="3">list_param.py</tspan>
</text>
<g focusable="true" height="13" preserveAspectRatio="none" transform="translate(0,3) scale(0,0.13)" width="0"/>
<ellipse cx="3" cy="3" fill="rgb(224,229,239)" height="6" rx="3" ry="3" stroke="rgb(2,59,185)" stroke-width="1px" style="cursor: default;" visibility="hidden" width="6"/>
</g>
<g focusable="true" height="100" preserveAspectRatio="none" transform="translate(-432,63) scale(1,1)" visibility="visible" width="100">
<rect fill="rgb(252,235,192)" fill-opacity="0" height="21" rx="3.15" ry="3.15" stroke="rgb(241,163,39)" stroke-opacity="0" stroke-width="1px" style="cursor: move;" width="81" x="-2" y="-3"/>
<line stroke="#495879" stroke-opacity="1" stroke-width="1px" style="cursor: move;" x1="0" x2="77" y1="15" y2="15"/>
<text fill="rgb(82,92,97)" font-family="verdana" font-size="8.0625" font-style="normal" font-weight="normal" style="cursor: move;" visibility="visible" x="3" y="3">
<tspan dy="1em" x="3">objFileLoader.py</tspan>
</text>
<g focusable="true" height="9" preserveAspectRatio="none" transform="translate(0,3) scale(0,0.09)" width="0"/>
<ellipse cx="-3" cy="15" fill="rgb(224,229,239)" height="6" rx="3" ry="3" stroke="rgb(2,59,185)" stroke-width="1px" style="cursor: default;" visibility="visible" width="6"/>
</g>
<g focusable="true" height="100" preserveAspectRatio="none" transform="translate(-203,-27) scale(1,1)" visibility="visible" width="100">
<rect fill="rgb(252,235,192)" fill-opacity="0" height="25" rx="3.75" ry="3.75" stroke="rgb(241,163,39)" stroke-opacity="0" stroke-width="1px" style="cursor: move;" width="76" x="-2" y="-3"/>
<line stroke="#495879" stroke-opacity="1" stroke-width="1px" style="cursor: move;" x1="0" x2="72" y1="19" y2="19"/>
<text fill="rgb(82,92,97)" font-family="verdana" font-size="10.75" font-style="normal" font-weight="normal" style="cursor: move;" visibility="visible" x="3" y="3">
<tspan dy="1em" x="3">main_gui.py</tspan>
</text>
<g focusable="true" height="13" preserveAspectRatio="none" transform="translate(0,3) scale(0,0.13)" width="0"/>
<ellipse cx="3" cy="3" fill="rgb(224,229,239)" height="6" rx="3" ry="3" stroke="rgb(2,59,185)" stroke-width="1px" style="cursor: default;" visibility="hidden" width="6"/>
</g>
<path d="M-216,-40 C-226,-39 -244,-43 -208,-61" fill="#495879" fill-opacity="1" stroke="#9b74e6" stroke-dasharray="4,2" stroke-opacity="1" stroke-width="2px" style="fill: none; cursor: pointer;" visibility="visible"/>
<path d="M-208,-15 C-262,-12 -262,-76 -226,-86" fill="#495879" fill-opacity="1" stroke="#9b74e6" stroke-dasharray="4,2" stroke-opacity="1" stroke-width="2px" style="fill: none; cursor: pointer;" visibility="visible"/>
<line fill-opacity="0.3" stroke="#6589de" stroke-opacity="0.3" stroke-width="1px" visibility="hidden" x1="-208" x2="-259" y1="-15" y2="-12"/>
<line fill-opacity="0.3" stroke="#6589de" stroke-opacity="0.3" stroke-width="1px" visibility="hidden" x1="-226" x2="-259" y1="-86" y2="-76"/>
<ellipse cx="-259" cy="-12" fill="gray" height="6" rx="3" ry="3" stroke="#6589de" stroke-width="1px" style="cursor: pointer;" visibility="hidden" width="6"/>
<ellipse cx="-259" cy="-76" fill="gray" height="6" rx="3" ry="3" stroke="#6589de" stroke-width="1px" style="cursor: pointer;" visibility="hidden" width="6"/>
<line fill-opacity="0.3" stroke="#6589de" stroke-opacity="0.3" stroke-width="1px" visibility="hidden" x1="-216" x2="-223" y1="-40" y2="-39"/>
<line fill-opacity="0.3" stroke="#6589de" stroke-opacity="0.3" stroke-width="1px" visibility="hidden" x1="-208" x2="-241" y1="-61" y2="-43"/>
<ellipse cx="-223" cy="-39" fill="gray" height="6" rx="3" ry="3" stroke="#6589de" stroke-width="1px" style="cursor: pointer;" visibility="hidden" width="6"/>
<ellipse cx="-241" cy="-43" fill="gray" height="6" rx="3" ry="3" stroke="#6589de" stroke-width="1px" style="cursor: pointer;" visibility="hidden" width="6"/>
<rect fill="#CC0033" fill-opacity="0.4" height="6" rx="0" ry="0" stroke="#FF9933" stroke-opacity="0.4" stroke-width="1px" visibility="hidden" width="50" x="181" y="-61"/>
</svg>
